<?xml version="1.0" encoding="iso-8859-1"?>
<!-- Generator: Adobe Illustrator 19.0.0, SVG Export Plug-In . SVG Version: 6.00 Build 0)  -->
<svg version="1.1" id="Capa_1" xmlns="http://www.w3.org/2000/svg" xmlns:xlink="http://www.w3.org/1999/xlink" x="0px" y="0px"
	 viewBox="0 0 60 60" style="enable-background:new 0 0 60 60;" xml:space="preserve">
<g>
	<g>
		<path d="M57,0H3C1.3,0,0,1.3,0,3v37v9c0,0.6,0.4,1,1,1h20v8h-5v2h5h2h9h16c1.2,0,2-0.8,2-2v-8h9c0.6,0,1-0.4,1-1v-9V3
			C60,1.3,58.7,0,57,0z M2,3c0-0.6,0.4-1,1-1h54c0.6,0,1,0.4,1,1v36h-3V6c0-0.6-0.4-1-1-1H6C5.4,5,5,5.4,5,6v33H2V3z M48,34H32v-6
			h16V34z M32,36h16v16H32V36z M48,26H32c-1.2,0-2,0.8-2,2v11h-3H7V7h46v32h-3V28C50,26.8,49.2,26,48,26z M2,41h25h3v7H2V41z M23,58
			v-8h7v8H23z M32,58v-4h16v4H32z M50,48v-7h8v7H50z"/>
		<rect x="38" y="30" width="4" height="2"/>
		<rect x="38" y="55" width="4" height="2"/>
	</g>
</g>
<g>
</g>
<g>
</g>
<g>
</g>
<g>
</g>
<g>
</g>
<g>
</g>
<g>
</g>
<g>
</g>
<g>
</g>
<g>
</g>
<g>
</g>
<g>
</g>
<g>
</g>
<g>
</g>
<g>
</g>
</svg>
