<?xml version="1.0" encoding="utf-8"?>
<!-- Generator: Adobe Illustrator 21.0.2, SVG Export Plug-In . SVG Version: 6.00 Build 0)  -->
<svg version="1.1" id="Layer_1" xmlns="http://www.w3.org/2000/svg" xmlns:xlink="http://www.w3.org/1999/xlink" x="0px" y="0px"
	 viewBox="0 0 122 60" style="enable-background:new 0 0 122 60;" xml:space="preserve">
<style type="text/css">
	.st0{fill:#FFFFFF;stroke:#000000;stroke-miterlimit:10;}
	.st1{fill:#020000;}
	.st2{fill:none;}
</style>
<title>logo/logo—Final</title>
<desc>Created with Sketch.</desc>
<g>
	<g>
		<g>
			<path class="st0" d="M16.5,17c3.9,0,7.6,1.5,10.4,4.3s4.3,6.5,4.3,10.4s-1.5,7.6-4.3,10.4c-2.8,2.7-6.5,4.3-10.4,4.3
				s-7.6-1.5-10.4-4.3c-5.7-5.7-5.7-15,0-20.7C8.9,18.6,12.6,17,16.5,17 M16.5,15.9c-4,0-8.1,1.5-11.2,4.6c-6.1,6.1-6.1,16.2,0,22.4
				c3.1,3.1,7.1,4.6,11.2,4.6s8.1-1.5,11.2-4.6c6.1-6.1,6.1-16.2,0-22.4C24.6,17.4,20.5,15.9,16.5,15.9L16.5,15.9z"/>
		</g>
		<g>
			<path class="st1" d="M23.5,38C23.5,38,23.6,38,23.5,38c0.5-0.7,0.7-1.4,0.7-2.4c0-1-0.3-1.8-0.8-2.6c-0.2-0.2-0.4-0.5-0.7-0.8
				c-0.1-0.1-0.1-0.1-0.2-0.2l0,0c-0.5-0.4-1.1-0.7-1.9-0.8c0.6-0.2,2.3-0.8,2.8-2.5c0,0,0,0,0-0.1c0-0.1,0-0.1,0-0.2v-0.1
				c0,0,0,0,0-0.1l0,0c0.1-0.2,0.1-0.5,0.1-0.7c0-4.2-3.6-4.8-5.8-4.8h-7.3v17.4h7.4c2.7,0,4.6-0.7,5.5-2.1
				C23.4,38.1,23.5,38.1,23.5,38z M13,25.4h4.9c2.4,0,3.3,1.6,3.3,2.7c0,0.7-0.3,2.4-3.3,2.4H13V25.4z M13,38v-5.5h4.9
				c1.6,0,3.8,1,3.8,2.9s-2,2.6-3.8,2.6H13z"/>
		</g>
		<g>
			<g>
				<g>
					<line class="st2" x1="3.8" y1="19" x2="7.6" y2="22.8"/>
					<path class="st1" d="M7.6,23.4c-0.2,0-0.3-0.1-0.4-0.2l-3.8-3.8c-0.2-0.2-0.2-0.6,0-0.8s0.6-0.2,0.8,0l3.8,3.8
						c0.2,0.2,0.2,0.6,0,0.8C7.9,23.3,7.8,23.4,7.6,23.4z"/>
				</g>
				<g>
					<line class="st2" x1="25.4" y1="40.7" x2="29.2" y2="44.5"/>
					<path class="st1" d="M29.2,45c-0.2,0-0.3-0.1-0.4-0.2L25,41c-0.2-0.2-0.2-0.6,0-0.8c0.2-0.2,0.6-0.2,0.8,0l3.8,3.8
						c0.2,0.2,0.2,0.6,0,0.8C29.5,45,29.4,45,29.2,45z"/>
				</g>
			</g>
			<g>
				<g>
					<line class="st2" x1="29.2" y1="19" x2="25.4" y2="22.8"/>
					<path class="st1" d="M25.4,23.4c-0.2,0-0.3-0.1-0.4-0.2c-0.2-0.2-0.2-0.6,0-0.8l3.8-3.8c0.2-0.2,0.6-0.2,0.8,0s0.2,0.6,0,0.8
						l-3.8,3.8C25.7,23.3,25.6,23.4,25.4,23.4z"/>
				</g>
				<g>
					<line class="st2" x1="7.6" y1="40.7" x2="3.8" y2="44.5"/>
					<path class="st1" d="M3.8,45c-0.2,0-0.3-0.1-0.4-0.2c-0.2-0.2-0.2-0.6,0-0.8l3.8-3.8c0.2-0.2,0.6-0.2,0.8,0
						c0.2,0.2,0.2,0.6,0,0.8l-3.8,3.8C4.1,45,4,45,3.8,45z"/>
				</g>
			</g>
		</g>
	</g>
	<g>
		<path class="st1" d="M51.4,30.3c1.8-0.8,2.4-2.1,2.4-3.5c0-3.8-2.8-5.4-6.4-5.4c-2.9,0-5.9,0-8.8,0v18.5c2.9,0,5.9,0,8.8,0
			c3.9,0,6.9-1.4,6.9-5.4C54.4,33.4,53.6,31.1,51.4,30.3z M42,24.7h5.4c2.3,0,2.9,1.4,2.9,2.3c0,1-0.8,2-2.9,2H42V24.7z M47.4,36.8
			H42V32h5.4c1.4,0,3.5,0.9,3.5,2.5C50.9,36.3,48.8,36.8,47.4,36.8z"/>
		<path class="st1" d="M66.9,28.7c-0.8-1.3-2.4-2.1-4.2-2.1c-3.8,0-6.8,2.4-6.8,6.8c0,4.5,2.9,6.9,6.7,6.9c1.5,0,3.5-0.8,4.3-2.3
			l0.1,1.9h3v-13h-3.2V28.7z M63,37.4c-2.1,0-3.9-1.5-3.9-4s1.8-3.9,3.9-3.9C68.1,29.5,68.1,37.4,63,37.4z"/>
		<rect x="73.3" y="21" class="st1" width="1.9" height="19.2"/>
		<rect x="78.2" y="26.4" class="st1" width="1.9" height="13.8"/>
		<path class="st1" d="M79.2,21.1c-0.6,0-1.4,0.5-1.4,1.4s0.6,1.4,1.4,1.4c0.6,0,1.4-0.5,1.4-1.4S79.9,21.1,79.2,21.1z"/>
		<path class="st1" d="M104.2,26.3c-1.9,0-3.4,0.8-4.4,1.9V21h-1.9v19.2h1.9v-7.6c0-2.6,1.9-4.5,4.4-4.5c3.3,0,3.9,2.3,3.9,4.2v7.8
			h1.9v-7.8C110,28.6,107.9,26.3,104.2,26.3z"/>
		<path class="st1" d="M120.7,37.9l-0.3,0.1c-0.6,0.4-1.4,0.5-1.9,0.5c-1.8,0-2.1-1-2.1-2.6v-7.7h4.4v-1.8h-4.4v-4l-1.9,0.3v3.8
			h-2.8v1.8h2.8v7.7c0,3,1.3,4.5,4,4.5c0.8,0,1.6-0.3,2.6-0.8l0.3-0.1L120.7,37.9z"/>
		<path class="st1" d="M95.6,26.3h-1.9v1.9c-1-1.3-2.8-2-4.5-2c-3.7,0-6.4,2.8-6.4,6.4c0,3.7,2.8,6.6,6.4,6.6c1.9,0,3.4-0.8,4.5-2.1
			v1.1v0.4V39c0,0.3,0,0.4,0,0.5c0,0.1,0,0.3-0.1,0.8c-0.1,0.4-0.1,0.6-0.3,0.9c-0.1,0.3-0.3,0.6-0.5,0.9c-0.3,0.4-0.5,0.6-0.9,0.9
			c-0.4,0.3-0.8,0.4-1.3,0.6c-0.5,0.1-1.1,0.3-1.8,0.3c-0.6,0-1.3-0.1-1.8-0.3c-0.5-0.1-0.9-0.4-1.3-0.6c-0.3-0.1-0.4-0.3-0.5-0.5
			l-2.1,0.3c0,0,0,0,0.1,0.1l0,0c0.5,0.8,1.1,1.3,1.9,1.8l0.5,0.3c0.3,0.1,0.4,0.3,0.6,0.3c0.8,0.3,1.6,0.5,2.5,0.5c0,0,0,0,0.1,0
			c0,0,0,0,0.1,0c0.9,0,1.6-0.1,2.5-0.5c0.3-0.1,0.4-0.1,0.6-0.3l0.5-0.3c0.8-0.5,1.4-1,1.9-1.8l0,0c0-0.1,0.1-0.1,0.1-0.3
			c0.6-1,0.8-2.1,0.9-2.9c0-0.1,0-0.4,0-0.5l0,0c0-0.1,0-0.3,0-0.3v-2L95.6,26.3z M89.2,37.4c-2.6,0-4.5-2-4.5-4.7
			c0-2.8,1.9-4.7,4.5-4.7c3.2,0,4.4,2.3,4.7,4v1.3C93.6,35.1,92.2,37.4,89.2,37.4z"/>
	</g>
</g>
</svg>
