<?xml version="1.0" encoding="utf-8"?>
<!-- Generator: Adobe Illustrator 21.0.2, SVG Export Plug-In . SVG Version: 6.00 Build 0)  -->
<svg version="1.1" id="Layer_1" xmlns="http://www.w3.org/2000/svg" xmlns:xlink="http://www.w3.org/1999/xlink" x="0px" y="0px"
	 viewBox="0 0 122 60" style="enable-background:new 0 0 122 60;" xml:space="preserve">
<style type="text/css">
	.st0{fill:#1D1D1B;}
	.st1{fill:#020000;}
</style>
<title>logo/logo—Final</title>
<desc>Created with Sketch.</desc>
<g>
	<path class="st0" d="M2,19.5h22.4v3h-15v2.5h14v2.9h-14v2.5h15v3H2V19.5z"/>
	<path class="st0" d="M27.4,19.5h16.5c6.1,0,8.2,2,8.2,4.6c0,2.3-1.9,4.6-7.9,4.6h-9.4v4.6h-7.4C27.4,33.4,27.4,19.5,27.4,19.5z
		 M34.9,25.9h6.7c2.1,0,2.9-0.5,2.9-1.8c0-1.2-0.9-1.8-2.9-1.8h-6.7V25.9z"/>
	<path class="st0" d="M59.1,19.5h7.4l-6.6,14h-7.4L59.1,19.5z"/>
	<path class="st0" d="M120.7,28.1c-0.9,3-3.6,5.8-14.2,5.8c-9.5,0-14.1-2.6-14.1-7.4c0-4.7,4.4-7.4,14.1-7.4c6.8,0,12.4,1,14.1,5.8
		h-8.3c-0.4-1-1.5-2.7-5.8-2.7c-4.7,0-6.2,2-6.2,4.3s1.4,4.3,6.2,4.3c3.4,0,5.3-1,5.9-2.7C112.4,28.1,120.7,28.1,120.7,28.1z"/>
	<polygon class="st1" points="74.9,14.5 89.8,14.5 80.3,27.9 88.9,27.9 69.6,45.6 75.1,30 69,30 	"/>
</g>
</svg>
