<?xml version="1.0" encoding="utf-8"?>
<!-- Generator: Adobe Illustrator 21.0.2, SVG Export Plug-In . SVG Version: 6.00 Build 0)  -->
<svg version="1.1" id="Layer_1" xmlns="http://www.w3.org/2000/svg" xmlns:xlink="http://www.w3.org/1999/xlink" x="0px" y="0px"
	 viewBox="0 0 122 60" style="enable-background:new 0 0 122 60;" xml:space="preserve">
<style type="text/css">
	.st0{fill:#020000;}
</style>
<title>logo/logo—Final</title>
<desc>Created with Sketch.</desc>
<g>
	<path class="st0" d="M16.4,28.5c-1.9-1-6.4-0.4-6,1.8c0,0,0.2-1.8,3.4-0.8c2.3,0.7,2.1,3.9-2.1,5.8c-2.8,1.3-5,2.8-5.4,5.7h8.5
		c0,0-0.5-1.1,0-2.2c0.3-0.7,1.2-1.4,1.3-1.5c0,0.9-0.4,1.8-0.4,1.8c1.6-1.7,1.9-3.9,1.9-3.9c0,0,0,0,0,0c0.4,0.8,0.2,2.1,0.2,2.1
		c1.1-3.1,0.7-4.2,0.6-4.4c0.5,0.4,0.8,0.9,0.8,0.9C18.9,31.3,18.8,29.7,16.4,28.5"/>
	<path class="st0" d="M14.7,41c0,0,4.8-1.6,5.9-6.3c0,0,0.7,0.9,0.2,3.5c0,0,3.4-2.9,0.9-8.6c0,0,2.6,1.6,3,5c0,0,0.7-10.5-4.4-16
		c0,0,15,1.7,14.3,22.4c0,0-1.3-6-5.3-7.9c0,0,0.9,4.7-0.7,8c0,0,0.2-3.6-1.6-5.7c0,0,0,4.1-3.7,5.7c0,0,1.1-1.2,1.1-2.7
		C24.4,38.3,21.6,41.1,14.7,41"/>
	<path class="st0" d="M7.8,26.6c-0.9,0.2-1.9,0.2-2.8,0.3c0.9-0.6,2.8-2.1,3.5-3C8.3,24.6,8,25.8,7.8,26.6 M11.4,27.7
		c3-0.8,5.5-0.3,8.1-2.4c0,0-2.4,0.6-4.3,0.6c0,0,3.5-2.1,5-7c0,0-2.5,4.1-5.7,5.6c0,0,2-4.3,2.2-6c0,0-2.1,4-3.3,4.8
		c-0.6,0.4-1.1,0.4-1.1,0.4s0.5-1.9,0.7-3.2c0,0-1.3,2.7-2.1,2.8C10.1,23.4,8,22.5,8,22.5s-3.8,5-7.5,4.5c0,0,0.6,1.7,1.1,2.7
		c0.5,1,0.6,2.2,1.9,3c0,0-0.7-1.6-0.3-2.6c0.1-0.2,0.5-0.2,1-0.3c0.2,0.5,0.5,1.1,0.5,1.1c0-0.4,0.4-1.1,0.4-1.1s0,0,0,0
		c0.4-0.1,0.8-0.2,1.1-0.5C6.4,29.6,6.6,30,6.6,30c-0.1-0.5,0.6-1.8,0.6-1.8C7.7,27.9,7.9,28,7.9,28s-0.2,2.5,0.5,3.8
		c0.4,0.7,0.6,1.4,0.6,2.1C8.5,34.1,7.8,34,7.8,34c0.6,0.1,0.8,0.6,0.9,0.8c-0.2,0.3-0.4,0.4-0.7,0.4c-1.1,0-2.2-0.8-2.2-0.8
		s1.2,1.7,2.3,1.7c1,0,2.1-0.2,1.9-2.2l0,0c0,0,0.1-3.2,1.8-3.5c0,0-1.5,0.2-2.1,1.2C9.4,29.8,9.4,28.2,11.4,27.7z"/>
</g>
<path class="st0" d="M50.9,38.1c-1.2-0.4-7.5-6.2-7.5-6.2c0.3-0.2,0.9-0.3,1.3-0.6c0,0,0,0,0,0c1.1-0.6,2.2-1.6,2.2-3.8v0
	c0-2.3-1.3-3.9-4.4-5c-1.5-0.5-3-0.8-4.1-1.4c0,0,0.5,6,0.6,9.4c0,0.3,0,0.7,0,1c-0.7-0.1-1.4-0.2-2.2-0.4c0,0,0.9,0.5,2.2,0.7
	c-0.2,3.3-1.1,6.9-1.1,6.9c0,0,4.7-0.5,4.6-0.5l-0.9-0.7c-0.2,0-0.2-0.1-0.2-0.4c0-0.7,0.1-3.9,0.1-5.2c0.2,0,0.4,0,0.6-0.1
	c0,0,0.1,0,0.1,0.1c0.8,1.9,5.7,8.7,6.9,10.5l4.6-0.3c-2-1.2-4.4-4.2-4.4-4.2L50.9,38.1z M41.5,31.5C41.5,31.5,41.5,31.4,41.5,31.5
	c0-0.5,0.2-5.2,0.3-7c0-0.2,0.2-0.3,0.4-0.3c1,0,2,1.6,2,3.6c0,1-0.2,1.8-0.5,2.3C43.5,30.6,42.9,31.2,41.5,31.5z"/>
<path class="st0" d="M73.7,36c-1.2-0.5-3.1-3-3.1-3c0.3-0.1,0.8-0.3,1.1-0.4c0,0,0,0,0,0c1-0.5,2-1.2,2-2.9v0c0-1.8-1.2-3.2-3.3-3.7
	c-1.4-0.3-2.9-0.3-4-0.3c0,0,0.1,3.6,0.2,6.2c0,0.2,0,0.5,0,0.8c-0.6,0-1.3-0.1-2-0.3c0,0,0.8,0.3,2,0.6c-0.2,2.5-0.9,4.9-0.9,5
	c0,0,4.3-0.4,4.2-0.4L69,37.1c-0.1,0-0.2-0.1-0.2-0.3c0-0.5,0-2.6,0-3.6c0.2,0,0,0,0.2,0c0,0,1.4,2.8,2.2,4.8l4.3-0.3
	c-2.2-1-2.9-1.6-2.9-1.6L73.7,36z M68.9,31.7C68.9,31.6,68.9,31.6,68.9,31.7c0-0.5-0.1-2.3-0.1-4.1c0-0.2,2-0.1,2.5,1
	C72.2,30.3,70.1,31.4,68.9,31.7z"/>
<path class="st0" d="M55.7,33C55.7,33,55.7,33,55.7,33C55.7,33.1,55.7,33.1,55.7,33"/>
<path class="st0" d="M94.2,32.2c0,0-4.2,0.2-5,0.1c0,0,3,1,3.3,1.5c0,0,0.2,1.8,0,1.9c-0.8,0.4-1.6,0.5-2,0.5c-2.5,0-3.7-1.3-4-3.5
	c0.7,0.7,1.5,0.7,1.5,0.7c-2.1-1.9-1-4.1-1-4.1c0.5-1,1.5-1.6,3-1.6c2.3,0,4,1.9,4,1.9c0.2-1,0.3-1.7,0.9-2.7c0,0-3.5-1.2-4.8-1
	c-1.4,0.2-2.4,0.3-3.6,1.3c-1.2,1-2.3,2.7-2.2,5c0.3,5.5,4.5,5.5,5.4,5.5c1.2,0,5.1-0.1,5.1-0.1c-0.2-0.7-0.5-2.1-0.5-2.7
	C94.4,35,94.2,32.5,94.2,32.2"/>
<path class="st0" d="M114.4,21.2c0,0,1.5,0.6,1.8,0.7c0.3,1,0.2,6.5,0.2,9.9c-0.5-0.5-4.2-7.1-4.6-7.7c-1.3,0.1-5.2,0-6.2,0.1
	c0,0,1.5,0.6,1.9,0.7c0,0.7-0.2,11.8-0.5,12.7c-0.4,0.1-1.5,0.7-1.5,0.7c0.5,0,6.8,0,7.1,0.1c0,0-1.6-0.6-1.9-0.7
	c-0.2-0.7-0.4-9.9-0.4-10.3c0.6,0.8,8.4,15.7,8.9,16.3c0.1-0.8,0-20.8,0.2-21.5c0.5-0.1,1.4-0.7,1.4-0.7
	C120.6,21.3,114.7,21.3,114.4,21.2"/>
<path class="st0" d="M61.7,26.1c-1.4-0.5-3.4-0.6-5-0.6c0,0,0.5,3.5,0.4,6.3c0,1.3-0.3,3.4-0.5,5.1c-0.3-0.7-0.7-1.4-0.6-1.7
	c0,0-0.3,0.8-0.6,1c-1,0.6-2.4,0.3-4.1,0.3c-0.1-0.5-0.1-3.7-0.1-3.7c2.1-0.7,3.7,0,4.2,0.3c0-0.3-0.1-2.8,0-3.1
	c0,0-0.7,0.6-0.8,0.9c-0.4,0.2-1.9,0.2-3.4,0.2c0,0-0.1-3.8,0.2-3.8c1.1-0.3,2.1-0.4,2.9-0.2c0.7,0.2,1.6,1.1,1.6,1.1
	c0-0.8,0.2-2.7,0.2-2.7c-0.5,0.1-5.3,0.2-5.9,0.2c-0.4,0-0.7-0.1-1.2-0.1c-0.6,0-1.1,0-1.6-0.1c0,0,1.1,0.8,1.4,1.3
	c0.3,0.5,0,9.4-0.1,9.7c-0.5,0.9-1.6,1.3-1.6,1.3c0.7,0,2.1-0.1,2.6-0.1c0.9,0,5,0,6.9,0.1c1.3-0.3,2.9,0.2,5.6-0.6
	c2.8-0.9,4-2.2,4-5.4C66.1,27.8,63.2,26.7,61.7,26.1 M59.1,36.2c0.8-3.4,0-8.4,0-8.4c0.7,0.2,1.9,0.2,2.6,0.6c1,0.5,1.8,2.7,0.2,5.1
	c0,0,1.3-0.3,2-0.8C63.4,36.3,59.1,36.2,59.1,36.2z"/>
<path class="st0" d="M96.3,28.3c0,0-1.9,2.9-1.4,6.3l0.9-1.3c0.5,2.6,1.3,4.8,4.6,4.8h0.8c1.9,0,3.2-1.2,3.9-3l0,0
	c0,0,1.4-2.1,1.6-4.2c0,0-0.5,1.1-1.2,1.7c0-3.4-1.7-6.6-5.3-6.6C98.3,26.1,97,26.9,96.3,28.3L96.3,28.3z M97.2,31.6
	c0-2,1-3.5,3-3.5c2.4,0,3.5,2.1,3.5,4.4c0,2-1.2,3.6-2.9,3.6h0C98,36.1,97.2,33.8,97.2,31.6z"/>
<path class="st0" d="M101.2,31.4c-0.1-0.2-0.3-0.4-0.4-0.6c-0.1-0.2-0.2-0.5-0.3-0.7c-0.1-0.3-0.2-0.5-0.2-0.8
	c-0.1,0.3-0.1,0.5-0.2,0.8c-0.1,0.3-0.2,0.5-0.3,0.7c-0.1,0.2-0.2,0.4-0.4,0.6c-0.2,0.2-0.3,0.3-0.6,0.5c0.3,0.1,0.5,0.3,0.7,0.6
	c0.2,0.2,0.3,0.5,0.4,0.9c0.1,0.3,0.2,0.7,0.2,1.1c0,0.4,0.1,0.8,0.1,1.2c0.1-1.1,0.2-1.9,0.4-2.6c0.2-0.6,0.5-1,1-1.2
	C101.5,31.7,101.3,31.5,101.2,31.4"/>
<path class="st0" d="M84.9,36.9l-4.1-9.8c0,0-0.1,0.1-0.1,0.1c0,0,0,0,0,0l1.7-1.2c-0.5,0-6,0.3-5.7,0.4c-0.2,0.6-2.4,10.1-2.9,11.1
	c-0.4,0.1-1.6,0.5-1.6,0.5c0.4,0,2.9-0.2,3.3-0.2c0.5,0,2,0,2.5,0.1c0,0-0.9-0.4-1.3-0.5l1-3.8c0.8-0.1,2.8-0.3,3.5-0.3l1.4,3.8
	C82,37.2,81,37.8,81,37.8c0.4,0,5.3,0,5.5,0C86.5,37.8,85.1,37.1,84.9,36.9 M78,31.9l1.1-4.1l1.5,4L78,31.9z"/>
</svg>
