<?xml version="1.0" encoding="utf-8"?>
<!-- Generator: Adobe Illustrator 21.1.0, SVG Export Plug-In . SVG Version: 6.00 Build 0)  -->
<svg version="1.1" id="Layer_1" xmlns="http://www.w3.org/2000/svg" xmlns:xlink="http://www.w3.org/1999/xlink" x="0px" y="0px"
	 viewBox="0 0 122 60" style="enable-background:new 0 0 122 60;" xml:space="preserve">
<style type="text/css">
	.st0{stroke:#000000;stroke-width:0.375;}
	.st1{fill:none;stroke:#000000;stroke-width:0.375;}
	.st2{fill:#231F20;}
	.st3{fill:none;}
</style>
<path class="st0" d="M31.5,32.2c0.6,0.4,1.4,0.7,2.3,0.7c1.3,0,2.1-0.7,2.1-1.7c0-0.9-0.5-1.5-1.9-2c-1.7-0.6-2.7-1.4-2.7-2.9
	c0-1.6,1.3-2.8,3.3-2.8c1,0,1.8,0.2,2.2,0.5l-0.4,1.1c-0.3-0.2-1-0.5-1.9-0.5c-1.4,0-1.9,0.8-1.9,1.5c0,0.9,0.6,1.4,2,2
	c1.7,0.7,2.6,1.5,2.6,3c0,1.6-1.2,2.9-3.6,2.9c-1,0-2-0.3-2.6-0.6L31.5,32.2z"/>
<path class="st1" d="M31.5,32.2c0.6,0.4,1.4,0.7,2.3,0.7c1.3,0,2.1-0.7,2.1-1.7c0-0.9-0.5-1.5-1.9-2c-1.7-0.6-2.7-1.4-2.7-2.9
	c0-1.6,1.3-2.8,3.3-2.8c1,0,1.8,0.2,2.2,0.5l-0.4,1.1c-0.3-0.2-1-0.5-1.9-0.5c-1.4,0-1.9,0.8-1.9,1.5c0,0.9,0.6,1.4,2,2
	c1.7,0.7,2.6,1.5,2.6,3c0,1.6-1.2,2.9-3.6,2.9c-1,0-2-0.3-2.6-0.6L31.5,32.2z"/>
<path class="st0" d="M45.7,30.1c0,2.7-1.9,3.9-3.6,3.9c-2,0-3.5-1.4-3.5-3.7c0-2.4,1.6-3.9,3.6-3.9C44.3,26.4,45.7,27.9,45.7,30.1
	 M39.9,30.2c0,1.6,0.9,2.8,2.2,2.8c1.3,0,2.2-1.2,2.2-2.8c0-1.2-0.6-2.8-2.2-2.8C40.6,27.4,39.9,28.8,39.9,30.2"/>
<path class="st1" d="M45.7,30.1c0,2.7-1.9,3.9-3.6,3.9c-2,0-3.5-1.4-3.5-3.7c0-2.4,1.6-3.9,3.6-3.9C44.3,26.4,45.7,27.9,45.7,30.1z
	 M39.9,30.2c0,1.6,0.9,2.8,2.2,2.8c1.3,0,2.2-1.2,2.2-2.8c0-1.2-0.6-2.8-2.2-2.8C40.6,27.4,39.9,28.8,39.9,30.2z"/>
<path class="st0" d="M47.4,28.5c0-0.8,0-1.4-0.1-2h1.2l0.1,1.2h0c0.4-0.7,1.2-1.4,2.4-1.4c1,0,2.6,0.6,2.6,3.1v4.3h-1.3v-4.2
	c0-1.2-0.4-2.2-1.7-2.2c-0.9,0-1.5,0.6-1.8,1.4c-0.1,0.2-0.1,0.4-0.1,0.6v4.4h-1.3V28.5z"/>
<path class="st1" d="M47.4,28.5c0-0.8,0-1.4-0.1-2h1.2l0.1,1.2h0c0.4-0.7,1.2-1.4,2.4-1.4c1,0,2.6,0.6,2.6,3.1v4.3h-1.3v-4.2
	c0-1.2-0.4-2.2-1.7-2.2c-0.9,0-1.5,0.6-1.8,1.4c-0.1,0.2-0.1,0.4-0.1,0.6v4.4h-1.3V28.5z"/>
<path class="st0" d="M57.2,24.5c0,0.5-0.3,0.8-0.8,0.8c-0.5,0-0.8-0.4-0.8-0.8c0-0.5,0.3-0.8,0.8-0.8C56.9,23.6,57.2,24,57.2,24.5
	 M55.7,26.5h1.3v7.3h-1.3V26.5z"/>
<path class="st1" d="M57.2,24.5c0,0.5-0.3,0.8-0.8,0.8c-0.5,0-0.8-0.4-0.8-0.8c0-0.5,0.3-0.8,0.8-0.8C56.9,23.6,57.2,24,57.2,24.5z
	 M55.7,26.5h1.3v7.3h-1.3V26.5z"/>
<path class="st0" d="M64.4,33.5c-0.3,0.2-1.1,0.4-2.1,0.4c-2.2,0-3.6-1.5-3.6-3.7c0-2.2,1.5-3.9,3.9-3.9c0.8,0,1.5,0.2,1.8,0.4
	l-0.3,1c-0.3-0.2-0.8-0.3-1.5-0.3c-1.7,0-2.6,1.2-2.6,2.8c0,1.7,1.1,2.7,2.5,2.7c0.8,0,1.2-0.2,1.6-0.4L64.4,33.5z"/>
<path class="st1" d="M64.4,33.5c-0.3,0.2-1.1,0.4-2.1,0.4c-2.2,0-3.6-1.5-3.6-3.7c0-2.2,1.5-3.9,3.9-3.9c0.8,0,1.5,0.2,1.8,0.4
	l-0.3,1c-0.3-0.2-0.8-0.3-1.5-0.3c-1.7,0-2.6,1.2-2.6,2.8c0,1.7,1.1,2.7,2.5,2.7c0.8,0,1.2-0.2,1.6-0.4L64.4,33.5z"/>
<path class="st0" d="M69.2,23.8c0.8-0.1,1.7-0.2,2.8-0.2c1.9,0,3.2,0.4,4.1,1.3c0.9,0.8,1.4,2,1.4,3.6c0,1.7-0.5,3-1.5,3.9
	c-0.9,0.9-2.5,1.5-4.5,1.5c-0.9,0-1.7,0-2.4-0.1V23.8z M70.5,32.8c0.3,0.1,0.8,0.1,1.3,0.1c2.8,0,4.3-1.6,4.3-4.3
	c0-2.4-1.3-3.9-4.1-3.9c-0.7,0-1.2,0.1-1.5,0.1V32.8z"/>
<path class="st1" d="M69.2,23.8c0.8-0.1,1.7-0.2,2.8-0.2c1.9,0,3.2,0.4,4.1,1.3c0.9,0.8,1.4,2,1.4,3.6c0,1.7-0.5,3-1.5,3.9
	c-0.9,0.9-2.5,1.5-4.5,1.5c-0.9,0-1.7,0-2.4-0.1V23.8z M70.5,32.8c0.3,0.1,0.8,0.1,1.3,0.1c2.8,0,4.3-1.6,4.3-4.3
	c0-2.4-1.3-3.9-4.1-3.9c-0.7,0-1.2,0.1-1.5,0.1V32.8z"/>
<path class="st0" d="M80,30.4c0,1.8,1.2,2.5,2.5,2.5c0.9,0,1.5-0.2,2-0.4l0.2,0.9c-0.5,0.2-1.3,0.5-2.4,0.5c-2.2,0-3.6-1.5-3.6-3.7
	s1.3-3.9,3.4-3.9c2.4,0,3,2.1,3,3.4c0,0.3,0,0.5,0,0.6H80z M83.9,29.5c0-0.8-0.3-2.2-1.8-2.2c-1.3,0-1.9,1.2-2,2.2H83.9z"/>
<path class="st1" d="M80,30.4c0,1.8,1.2,2.5,2.5,2.5c0.9,0,1.5-0.2,2-0.4l0.2,0.9c-0.5,0.2-1.3,0.5-2.4,0.5c-2.2,0-3.6-1.5-3.6-3.7
	s1.3-3.9,3.4-3.9c2.4,0,3,2.1,3,3.4c0,0.3,0,0.5,0,0.6H80z M83.9,29.5c0-0.8-0.3-2.2-1.8-2.2c-1.3,0-1.9,1.2-2,2.2H83.9z"/>
<path class="st0" d="M87.3,26.5l1.4,4.1c0.2,0.7,0.4,1.3,0.6,1.9h0c0.2-0.6,0.4-1.2,0.6-1.9l1.4-4.1h1.4l-2.9,7.3h-1.3l-2.8-7.3
	H87.3z"/>
<path class="st1" d="M87.3,26.5l1.4,4.1c0.2,0.7,0.4,1.3,0.6,1.9h0c0.2-0.6,0.4-1.2,0.6-1.9l1.4-4.1h1.4l-2.9,7.3h-1.3l-2.8-7.3
	H87.3z"/>
<path class="st0" d="M95.5,24.5c0,0.5-0.3,0.8-0.8,0.8c-0.5,0-0.8-0.4-0.8-0.8c0-0.5,0.3-0.8,0.8-0.8C95.2,23.6,95.5,24,95.5,24.5
	 M94,26.5h1.3v7.3H94V26.5z"/>
<path class="st1" d="M95.5,24.5c0,0.5-0.3,0.8-0.8,0.8c-0.5,0-0.8-0.4-0.8-0.8c0-0.5,0.3-0.8,0.8-0.8C95.2,23.6,95.5,24,95.5,24.5z
	 M94,26.5h1.3v7.3H94V26.5z"/>
<path class="st0" d="M102.8,33.5c-0.3,0.2-1.1,0.4-2.1,0.4c-2.2,0-3.6-1.5-3.6-3.7c0-2.2,1.5-3.9,3.9-3.9c0.8,0,1.5,0.2,1.8,0.4
	l-0.3,1c-0.3-0.2-0.8-0.3-1.5-0.3c-1.7,0-2.6,1.2-2.6,2.8c0,1.7,1.1,2.7,2.5,2.7c0.8,0,1.2-0.2,1.6-0.4L102.8,33.5z"/>
<path class="st1" d="M102.8,33.5c-0.3,0.2-1.1,0.4-2.1,0.4c-2.2,0-3.6-1.5-3.6-3.7c0-2.2,1.5-3.9,3.9-3.9c0.8,0,1.5,0.2,1.8,0.4
	l-0.3,1c-0.3-0.2-0.8-0.3-1.5-0.3c-1.7,0-2.6,1.2-2.6,2.8c0,1.7,1.1,2.7,2.5,2.7c0.8,0,1.2-0.2,1.6-0.4L102.8,33.5z"/>
<path class="st0" d="M105,30.4c0,1.8,1.2,2.5,2.5,2.5c0.9,0,1.5-0.2,2-0.4l0.2,0.9c-0.5,0.2-1.3,0.5-2.4,0.5c-2.2,0-3.6-1.5-3.6-3.7
	s1.3-3.9,3.4-3.9c2.4,0,3,2.1,3,3.4c0,0.3,0,0.5,0,0.6H105z M108.8,29.5c0-0.8-0.3-2.2-1.8-2.2c-1.3,0-1.9,1.2-2,2.2H108.8z"/>
<path class="st1" d="M105,30.4c0,1.8,1.2,2.5,2.5,2.5c0.9,0,1.5-0.2,2-0.4l0.2,0.9c-0.5,0.2-1.3,0.5-2.4,0.5c-2.2,0-3.6-1.5-3.6-3.7
	s1.3-3.9,3.4-3.9c2.4,0,3,2.1,3,3.4c0,0.3,0,0.5,0,0.6H105z M108.8,29.5c0-0.8-0.3-2.2-1.8-2.2c-1.3,0-1.9,1.2-2,2.2H108.8z"/>
<path class="st0" d="M111.6,32.5c0.4,0.3,1.1,0.5,1.7,0.5c1,0,1.4-0.5,1.4-1.1c0-0.6-0.4-1-1.4-1.3c-1.3-0.5-1.9-1.2-1.9-2.1
	c0-1.2,0.9-2.1,2.5-2.1c0.7,0,1.4,0.2,1.8,0.5l-0.3,1c-0.3-0.2-0.8-0.4-1.5-0.4c-0.8,0-1.2,0.5-1.2,1c0,0.6,0.4,0.9,1.4,1.2
	c1.3,0.5,1.9,1.1,1.9,2.2c0,1.3-1,2.2-2.7,2.2c-0.8,0-1.5-0.2-2-0.5L111.6,32.5z"/>
<path class="st1" d="M111.6,32.5c0.4,0.3,1.1,0.5,1.7,0.5c1,0,1.4-0.5,1.4-1.1c0-0.6-0.4-1-1.4-1.3c-1.3-0.5-1.9-1.2-1.9-2.1
	c0-1.2,0.9-2.1,2.5-2.1c0.7,0,1.4,0.2,1.8,0.5l-0.3,1c-0.3-0.2-0.8-0.4-1.5-0.4c-0.8,0-1.2,0.5-1.2,1c0,0.6,0.4,0.9,1.4,1.2
	c1.3,0.5,1.9,1.1,1.9,2.2c0,1.3-1,2.2-2.7,2.2c-0.8,0-1.5-0.2-2-0.5L111.6,32.5z"/>
<path class="st2" d="M9.1,23.2l-2.4,1.4l2.1,9.5l3-1.7l-0.4-1c0,0,0.3-0.2,0.5-0.4c0.1-0.1,1.9-3.2,2.2-3.6c0.2-0.5,0-0.8-0.2-0.8
	c-0.3,0-3.8-0.5-3.8-0.5s0.1-0.6,0.8-0.6c0.7,0,3.7,0.3,4.4,0.5c0.7,0.2,1.2,0.6,0.7,1.4c-0.4,0.8-2.5,4.2-2.5,4.2l3.7-2.1L15,19.8
	l-2.8,1.6c0,0-2.1,3.3-2.5,3.9c-0.4,0.6-0.2,1,0.4,1.1c0.6,0.1,3.6,0.4,3.6,0.4s-0.3,0.7-0.8,0.6c-0.5,0-4.1-0.5-4.5-0.6
	c-0.3-0.1-1-0.7-0.6-1.3C8.1,25,9.1,23.2,9.1,23.2"/>
<path class="st3" d="M9.1,23.2l-2.4,1.4l2.1,9.5l3-1.7l-0.4-1c0,0,0.3-0.2,0.5-0.4c0.1-0.1,1.9-3.2,2.2-3.6c0.2-0.5,0-0.8-0.2-0.8
	c-0.3,0-3.8-0.5-3.8-0.5s0.1-0.6,0.8-0.6c0.7,0,3.7,0.3,4.4,0.5c0.7,0.2,1.2,0.6,0.7,1.4c-0.4,0.8-2.5,4.2-2.5,4.2l3.7-2.1L15,19.8
	l-2.8,1.6c0,0-2.1,3.3-2.5,3.9c-0.4,0.6-0.2,1,0.4,1.1c0.6,0.1,3.6,0.4,3.6,0.4s-0.3,0.7-0.8,0.6c-0.5,0-4.1-0.5-4.5-0.6
	c-0.3-0.1-1-0.7-0.6-1.3C8.1,25,9.1,23.2,9.1,23.2z"/>
<path class="st2" d="M15.9,20l5.6,2.3c0,0-2.1-0.6-2.9-0.7c-0.8-0.2-1.3-0.2-1.5-0.2c-0.3,0.1-0.8,0.6-0.8,0.6l0.2,0.9l1.2-0.7
	c0,0,3.1,1,3.3,1.2c0.2,0.2,0.2,0.5,0,0.8c-0.2,0.3-1.8,3.1-1.8,3.1s-0.5,0.2-0.8,0.3c-0.3,0.1-0.7-0.2-0.8-0.1l0,0.9l0.1,0.7
	c0,0,2.1,0,2.3,0c0.2,0,0.3,0,0.4-0.1c0,0,1.7-4.1,2-4.8c0.2-0.8,0.1-1.7,0.1-1.7l1.9,9.3l-6.7-2.7L15.9,20 M17.3,22.8
	c0,0,0.8,4.3,0.8,4.4c0.1,0.1,0.2,0.3,0.2,0.2c0.1,0,0.2-0.4,0.3-0.4c0-0.1-0.2-4.2-0.2-4.2s-0.6-0.3-0.7-0.3
	C17.6,22.5,17.4,22.7,17.3,22.8"/>
<path class="st3" d="M15.9,20l5.6,2.3c0,0-2.1-0.6-2.9-0.7c-0.8-0.2-1.3-0.2-1.5-0.2c-0.3,0.1-0.8,0.6-0.8,0.6l0.2,0.9l1.2-0.7
	c0,0,3.1,1,3.3,1.2c0.2,0.2,0.2,0.5,0,0.8c-0.2,0.3-1.8,3.1-1.8,3.1s-0.5,0.2-0.8,0.3c-0.3,0.1-0.7-0.2-0.8-0.1l0,0.9l0.1,0.7
	c0,0,2.1,0,2.3,0c0.2,0,0.3,0,0.4-0.1c0,0,1.7-4.1,2-4.8c0.2-0.8,0.1-1.7,0.1-1.7l1.9,9.3l-6.7-2.7L15.9,20 M17.3,22.8
	c0,0,0.8,4.3,0.8,4.4c0.1,0.1,0.2,0.3,0.2,0.2c0.1,0,0.2-0.4,0.3-0.4c0-0.1-0.2-4.2-0.2-4.2s-0.6-0.3-0.7-0.3
	C17.6,22.5,17.4,22.7,17.3,22.8z"/>
<polygon class="st2" points="9.5,34.6 16.2,37.4 24.3,32.8 17.5,30.1 "/>
<polygon class="st3" points="9.5,34.6 16.2,37.4 24.3,32.8 17.5,30.1 "/>
</svg>
