<?xml version="1.0" encoding="utf-8"?>
<!-- Generator: Adobe Illustrator 21.0.2, SVG Export Plug-In . SVG Version: 6.00 Build 0)  -->
<svg version="1.1" id="Layer_1" xmlns="http://www.w3.org/2000/svg" xmlns:xlink="http://www.w3.org/1999/xlink" x="0px" y="0px"
	 viewBox="0 0 122 60" style="enable-background:new 0 0 122 60;" xml:space="preserve">
<style type="text/css">
	.st0{fill:#020000;}
</style>
<title>logo/logo—Final</title>
<desc>Created with Sketch.</desc>
<g>
	<g>
		<g>
			<g>
				<path class="st0" d="M40.9,39.3c-1.3,0-2.2-0.4-2.8-1.3c-0.2-0.4-0.3-0.8-0.3-1.2c0-0.4,0.1-0.9,0.4-1.3l7-12.4l9-0.2L47,35.6
					c-0.2,0.3-0.2,0.7-0.1,0.9c0.1,0.2,0.3,0.3,0.8,0.3h3.8l-1.3,2.3h-9.2V39.3z"/>
				<path class="st0" d="M65.8,35.4l7.5-8.3h4.1L60.7,43.6h-9.5l1.3-2.3h3.1c1.4,0,2.2-0.7,2.2-1.9l0.6-12l8-0.2L65.8,35.4z"/>
				<path class="st0" d="M90.7,39.3c-1.6,0-2.5-0.3-3-1c-0.2-0.2-0.3-0.6-0.3-1c0-0.6,0.2-1.2,0.7-1.9l2.4-4.3
					c0.2-0.3,0.1-0.6-0.1-0.9c-0.2-0.2-0.4-0.3-0.8-0.3c-0.9,0-1.6,0.4-2.1,1.2l-4.5,8.2h-9l6.6-12l7.3-0.2v0.4v0.4
					c1.8-0.9,3.7-1.3,5.7-1.3c2.1,0,3.7,0.4,4.5,1.6c0.6,0.6,0.8,1.2,0.8,2.1c0,0.7-0.2,1.4-0.7,2.2l-1.7,3
					c-0.2,0.3-0.2,0.7-0.1,0.9c0.1,0.2,0.3,0.3,0.8,0.3h2.4L98.3,39h-7.6V39.3z"/>
				<path class="st0" d="M113.3,26.4c2,0,3.7,0.1,4.8,0.4c2.1,0.6,3.1,1.6,3.1,3.1c0,0.9-0.3,1.7-0.9,2.3c-0.7,0.8-1.6,1.1-2.8,1.1
					c-1,0-1.8-0.3-2.3-0.9c-0.6-0.6-0.9-1.3-0.9-2.3c0-0.3,0-0.8,0.1-1.1c-0.1-0.1-0.2-0.1-0.3-0.2c-0.1,0-0.3-0.1-0.4-0.1
					c-0.9,0-1.6,0.4-2,1.3l-2.9,5.2c-0.2,0.4-0.3,0.8-0.1,1.1c0.1,0.3,0.4,0.6,1,0.6l9.5-0.2l-1.4,2.5h-9.6c-1.9,0-3.5-0.3-4.9-1.1
					c-1.6-0.9-2.4-2.1-2.4-3.8c0-2.4,1.4-4.4,4.4-6C107.4,27.1,110.2,26.4,113.3,26.4z"/>
			</g>
			<g>
				<g>
					<polygon class="st0" points="3.1,42.4 2.8,43.2 3.8,43.2 4.1,42.4 					"/>
					<polygon class="st0" points="3.3,39.1 3,40 4,40 4.2,39.1 					"/>
					<polygon class="st0" points="4.4,44 4.7,43.2 3.8,43.2 3.5,44 					"/>
					<polygon class="st0" points="4.8,40 4,40 3.7,40.7 4.6,40.7 4.6,40.7 5.5,40.7 5.7,40 					"/>
					<polygon class="st0" points="1.2,45.6 2.1,45.6 2.3,44.8 1.5,44.8 					"/>
					<path class="st0" d="M27.8,22.3H21c-2,0-4.1,1.5-4.7,3.2c-0.6,1.8,0.5,3.2,2.6,3.2h6.8c3.1,0,5,2.3,4.1,5.2
						c-0.9,2.8-4.3,5.2-7.5,5.2h-5.4l0,0h-0.9L15.6,40l0,0h-0.9l0.3-0.8h-0.9l0,0h-0.9l0,0h-0.9l0,0h-0.7l0,0h-0.9L10.2,40l0,0H9.4
						l0.3-0.8H8.8L8.4,40l0,0H7.5l0.3-0.8H6.9l0,0H6L5.7,40h0.9l-0.3,0.8l-0.2,0.7H5.2l-0.3,0.8h0.9l0.3-0.8h0.9l-0.3,0.8h0.9
						l-0.3,0.8l0,0H6.5L6.3,44H5.3L5,44.9H4.2l-0.3,0.8h0.9l0.3-0.8H6L6.3,44h0.9l-0.3,0.8l-0.3,0.8h0.9l0,0h0.9l0,0h0.9l0,0h0.9
						l0.3-0.8l0,0h0.9l-0.3,0.8h0.9l0.3-0.8l0,0h0.9l-0.3,0.8h0.9l0,0H15l0,0h5.4l0,0c7.2,0,14.7-5.2,16.8-11.7
						C39.1,27.5,34.9,22.3,27.8,22.3z M7.9,41.5H7l0.3-0.8h0.9L7.9,41.5z M9,44H8l0.3-0.8l0,0h0.9L9,44z M9.7,41.5H8.9l0.3-0.8h0.9
						L9.7,41.5z M9.6,44.8L9.6,44.8H8.7L9,43.9h0.9L9.6,44.8z M10.1,43.2H9.2l0.3-0.8h0.9L10.1,43.2z M11.3,42.4h-0.9l0.3-0.8h0.9
						L11.3,42.4z M11.8,40.7h-0.9l0.3-0.8l0,0h0.9L11.8,40.7z M11.9,43.2L11.9,43.2h-0.9l0.3-0.8h0.9L11.9,43.2z M13.4,44h-0.9
						l0.3-0.8l0,0h0.9L13.4,44z M14.3,41.5h-0.9l0.3-0.8l0,0h0.9L14.3,41.5z M14.1,44.8L14.1,44.8h-0.9l0.3-0.8h0.9L14.1,44.8z
						 M14.6,43.2h-0.9l0.3-0.8h0.9L14.6,43.2z M15.8,42.4h-0.9l0.3-0.8h0.9L15.8,42.4z M16.4,40.7h-0.9l0.3-0.8l0,0h0.9L16.4,40.7z
						 M16.5,43.2L16.5,43.2h-0.9l0.3-0.8h0.8L16.5,43.2z M18.2,43.2L18.2,43.2h-0.9l0.3-0.8h0.9L18.2,43.2z M18.8,41.5h-0.9l0.3-0.8
						l0,0h0.9L18.8,41.5z"/>
				</g>
				<g>
					<polygon class="st0" points="40.7,17.1 41.1,16.2 40.1,16.2 39.9,17.1 					"/>
					<polygon class="st0" points="40.6,20.3 40.8,19.4 40,19.4 39.7,20.3 					"/>
					<polygon class="st0" points="39.5,15.4 39.3,16.2 40.1,16.2 40.4,15.4 					"/>
					<polygon class="st0" points="39.1,19.4 40,19.4 40.2,18.6 39.4,18.6 39.4,18.6 38.4,18.6 38.1,19.4 					"/>
					<polygon class="st0" points="42.7,13.7 41.9,13.7 41.6,14.5 42.5,14.5 					"/>
					<path class="st0" d="M16.2,37.2h6.8c2,0,4.1-1.5,4.7-3.2c0.6-1.8-0.5-3.2-2.6-3.2h-6.8c-3.2,0-5-2.3-4.1-5.2
						c0.9-2.8,4.3-5.2,7.5-5.2h5.4l0,0H28l0.3-0.8l0,0h0.8l-0.3,0.8h0.9l0,0h0.9l0,0h0.9l0,0h0.9l0,0h0.7l0.3-0.8l0,0h0.9l-0.3,0.8
						h0.9l0.3-0.8l0,0h0.9l-0.3,0.8h0.9l0,0H38l0.3-0.8h-0.9l0.1-0.8l0.3-0.8h0.9l0.3-0.8h-0.9l-0.3,0.8h-0.9l0.3-0.8h-0.9l0.3-0.8
						l0,0h0.9l0.3-0.8h0.7l0.3-0.8h0.9l0.3-0.8h-0.9l-0.3,0.8h-0.9l-0.3,0.8h-0.9l0.3-0.8l0.3-0.8h-0.8l0,0h-0.9l0,0h-0.9l0,0h-0.9
						l-0.3,0.8l0,0h-0.9l0.3-0.8h-0.9l-0.3,0.8l0,0h-0.9l0.3-0.8h-0.9l0,0h-0.7l0,0h-5.4l0,0c-7.2,0-14.7,5.2-16.8,11.7
						C4.8,31.9,9,37.2,16.2,37.2z M36.1,17.9H37l-0.3,0.7h-0.9L36.1,17.9z M35,15.4h0.9l-0.3,0.8l0,0h-0.9L35,15.4z M34.2,17.9h0.9
						l-0.3,0.7h-0.9L34.2,17.9z M34.4,14.5L34.4,14.5h0.9L35,15.4h-0.9L34.4,14.5z M33.9,16.2h0.9l-0.3,0.8h-0.9L33.9,16.2z
						 M32.6,17.1h0.9l-0.3,0.8h-0.9L32.6,17.1z M32.1,18.6H33l-0.3,0.8l0,0h-0.9L32.1,18.6z M32,16.2L32,16.2h0.9l-0.3,0.8h-0.9
						L32,16.2z M30.4,15.4h0.9l-0.3,0.8l0,0h-0.8L30.4,15.4z M29.7,17.9h0.9l-0.3,0.7l0,0h-0.9L29.7,17.9z M29.8,14.5L29.8,14.5h0.9
						l-0.3,0.8h-0.9L29.8,14.5z M29.3,16.2h0.9l-0.3,0.8H29L29.3,16.2z M28.1,17.1h0.9l-0.3,0.8h-0.9L28.1,17.1z M27.6,18.6h0.9
						l-0.3,0.8l0,0h-0.9L27.6,18.6z M27.5,16.2L27.5,16.2h0.9l-0.3,0.8h-0.9L27.5,16.2z M25.6,16.2L25.6,16.2h0.9l-0.3,0.8h-0.9
						L25.6,16.2z M25.1,17.9H26l-0.3,0.7l0,0h-0.9L25.1,17.9z"/>
				</g>
			</g>
		</g>
	</g>
</g>
</svg>
